<?xml version="1.0" standalone="no"?><svg xmlns="http://www.w3.org/2000/svg" viewBox="0 0 1440 320"><path fill="#f3f4f5" fill-opacity="1" d="M0,96L24,90.7C48,85,96,75,144,112C192,149,240,235,288,272C336,309,384,299,432,261.3C480,224,528,160,576,117.3C624,75,672,53,720,64C768,75,816,117,864,117.3C912,117,960,75,1008,53.3C1056,32,1104,32,1152,80C1200,128,1248,224,1296,266.7C1344,309,1392,299,1416,293.3L1440,288L1440,320L1416,320C1392,320,1344,320,1296,320C1248,320,1200,320,1152,320C1104,320,1056,320,1008,320C960,320,912,320,864,320C816,320,768,320,720,320C672,320,624,320,576,320C528,320,480,320,432,320C384,320,336,320,288,320C240,320,192,320,144,320C96,320,48,320,24,320L0,320Z"></path></svg>